<svg width="24" height="25" viewBox="0 0 24 25" fill="none" xmlns="http://www.w3.org/2000/svg">
<path fill-rule="evenodd" clip-rule="evenodd" d="M12.3851 6.5C10.665 6.5 9.27051 7.95507 9.27051 9.75C9.27051 11.5449 10.665 13 12.3851 13C14.1053 13 15.4997 11.5449 15.4997 9.75C15.4997 7.95507 14.1053 6.5 12.3851 6.5ZM10.708 9.75C10.708 8.7835 11.4589 8 12.3851 8C13.3113 8 14.0622 8.7835 14.0622 9.75C14.0622 10.7165 13.3113 11.5 12.3851 11.5C11.4589 11.5 10.708 10.7165 10.708 9.75Z" fill="#121211"/>
<path fill-rule="evenodd" clip-rule="evenodd" d="M12.3854 2.5C8.54819 2.5 5.4375 5.74594 5.4375 9.75C5.4375 11.2181 5.8557 12.5843 6.57458 13.726L4.0963 18.2051C3.95536 18.4599 3.97012 18.777 4.13405 19.0163C4.29798 19.2556 4.58081 19.3728 4.85739 19.316L7.36235 18.8022L8.18837 21.3228C8.27957 21.6011 8.51826 21.7981 8.79881 21.8266C9.07936 21.8551 9.34997 21.7099 9.49091 21.4551L11.9632 16.9868C12.1029 16.9956 12.2436 17 12.3854 17C12.5272 17 12.668 16.9956 12.8077 16.9868L15.2799 21.4551C15.421 21.7101 15.692 21.8554 15.9728 21.8265C16.2536 21.7977 16.4923 21.6001 16.583 21.3213L17.4048 18.7955L19.9119 19.3157C20.1887 19.3732 20.472 19.2563 20.6363 19.017C20.8007 18.7776 20.8156 18.4601 20.6746 18.2051L18.1963 13.726C18.9151 12.5843 19.3333 11.2181 19.3333 9.75C19.3333 5.74594 16.2226 2.5 12.3854 2.5ZM6.875 9.75C6.875 6.57436 9.3421 4 12.3854 4C15.4287 4 17.8958 6.57436 17.8958 9.75C17.8958 12.9256 15.4287 15.5 12.3854 15.5C9.3421 15.5 6.875 12.9256 6.875 9.75ZM10.4532 16.716C9.34825 16.3828 8.35655 15.7712 7.55245 14.9586L6.132 17.5259L7.70077 17.2041C8.05348 17.1317 8.40318 17.3424 8.51949 17.6973L9.0368 19.2759L10.4532 16.716ZM15.7318 19.2717L14.3177 16.716C15.4226 16.3828 16.4143 15.7712 17.2184 14.9586L18.6366 17.5217L17.067 17.1961C16.7133 17.1227 16.3622 17.3342 16.2463 17.6906L15.7318 19.2717Z" fill="#121211"/>
</svg>
