<svg width="24" height="24" viewBox="0 0 24 24" fill="none" xmlns="http://www.w3.org/2000/svg">
<path d="M18.0002 19.9999C18.3185 19.9999 18.6237 19.8734 18.8488 19.6484C19.0738 19.4233 19.2002 19.1181 19.2002 18.7999C19.2002 18.4816 19.0738 18.1764 18.8488 17.9513C18.6237 17.7263 18.3185 17.5999 18.0002 17.5999C17.682 17.5999 17.3768 17.7263 17.1517 17.9513C16.9267 18.1764 16.8002 18.4816 16.8002 18.7999C16.8002 19.1181 16.9267 19.4233 17.1517 19.6484C17.3768 19.8734 17.682 19.9999 18.0002 19.9999ZM10.0002 19.9999C10.3185 19.9999 10.6237 19.8734 10.8488 19.6484C11.0738 19.4233 11.2002 19.1181 11.2002 18.7999C11.2002 18.4816 11.0738 18.1764 10.8488 17.9513C10.6237 17.7263 10.3185 17.5999 10.0002 17.5999C9.68203 17.5999 9.3768 17.7263 9.15176 17.9513C8.92672 18.1764 8.80029 18.4816 8.80029 18.7999C8.80029 19.1181 8.92672 19.4233 9.15176 19.6484C9.3768 19.8734 9.68203 19.9999 10.0002 19.9999Z" fill="#121211" stroke="#121211" stroke-width="1.2" stroke-linecap="round" stroke-linejoin="round"/>
<path d="M6.4 5.6H20L18.4 14.4M6.4 5.6L8 14.4H18.4M6.4 5.6C6.2664 5.0664 5.6 4 4 4M18.4 14.4H6.584C5.1568 14.4 4.4 15.0248 4.4 16C4.4 16.9752 5.1568 17.6 6.584 17.6H18" stroke="#121211" stroke-width="1.2" stroke-linecap="round" stroke-linejoin="round"/>
</svg>
