<svg width="17" height="16" viewBox="0 0 17 16" fill="none" xmlns="http://www.w3.org/2000/svg">
<path fill-rule="evenodd" clip-rule="evenodd" d="M5.52374 2.66675C5.77029 2.66675 5.97016 2.86119 5.97016 3.10105V4.06672C7.6533 3.92089 9.34644 3.92089 11.0296 4.06672V3.10105C11.0296 2.86119 11.2294 2.66675 11.476 2.66675C11.7225 2.66675 11.9224 2.86119 11.9224 3.10105V4.15289C12.8111 4.27513 13.5132 4.95897 13.632 5.83125L13.6835 6.20936C13.9002 7.79968 13.8815 9.41201 13.628 10.9971C13.5024 11.7823 12.8466 12.3855 12.0337 12.4635L11.3236 12.5316C9.44564 12.7118 7.55404 12.7118 5.67608 12.5316L4.96597 12.4635C4.15305 12.3855 3.49732 11.7823 3.37172 10.9971C3.11818 9.41201 3.09947 7.79968 3.31615 6.20936L3.36767 5.83125C3.48652 4.95896 4.18862 4.27511 5.07732 4.15288V3.10105C5.07732 2.86119 5.27719 2.66675 5.52374 2.66675ZM5.78872 4.95569C7.59177 4.78271 9.4079 4.78271 11.211 4.95569L11.7499 5.00739C12.2658 5.05689 12.6788 5.44543 12.7469 5.94539L12.7984 6.3235C12.8164 6.45559 12.8327 6.58784 12.8473 6.72021H4.15239C4.16696 6.58784 4.18324 6.45559 4.20124 6.3235L4.25276 5.94539C4.32088 5.44543 4.73386 5.05689 5.24977 5.00739L5.78872 4.95569ZM4.08142 7.58881C4.02298 8.68215 4.08056 9.77955 4.25394 10.8635C4.31694 11.2574 4.64584 11.5599 5.0536 11.5991L5.7637 11.6672C7.58337 11.8418 9.4163 11.8418 11.236 11.6672L11.9461 11.5991C12.3538 11.5599 12.6827 11.2574 12.7457 10.8635C12.9191 9.77955 12.9767 8.68215 12.9182 7.58881H4.08142Z" fill="#121211"/>
</svg>
