<svg width="48" height="49" viewBox="0 0 48 49" fill="none" xmlns="http://www.w3.org/2000/svg">
<path d="M10 24.7412V8.74121M38 40.7412V34.7412M10 40.7412V32.7412M38 26.7412V8.74121M24 14.7412V8.74121M24 40.7412V22.7412" stroke="#121211" stroke-width="2" stroke-linecap="round"/>
<path d="M10 32.7412C12.2091 32.7412 14 30.9503 14 28.7412C14 26.5321 12.2091 24.7412 10 24.7412C7.79086 24.7412 6 26.5321 6 28.7412C6 30.9503 7.79086 32.7412 10 32.7412Z" stroke="#121211" stroke-width="2" stroke-linecap="round"/>
<path d="M24 22.7412C26.2091 22.7412 28 20.9503 28 18.7412C28 16.5321 26.2091 14.7412 24 14.7412C21.7909 14.7412 20 16.5321 20 18.7412C20 20.9503 21.7909 22.7412 24 22.7412Z" stroke="#121211" stroke-width="2" stroke-linecap="round"/>
<path d="M38 34.7412C40.2091 34.7412 42 32.9503 42 30.7412C42 28.5321 40.2091 26.7412 38 26.7412C35.7909 26.7412 34 28.5321 34 30.7412C34 32.9503 35.7909 34.7412 38 34.7412Z" stroke="#121211" stroke-width="2" stroke-linecap="round"/>
</svg>
