<svg width="24" height="24" viewBox="0 0 24 24" fill="none" xmlns="http://www.w3.org/2000/svg">
<path d="M19.1296 2.21967C19.4225 2.51256 19.4225 2.98744 19.1296 3.28033L18.5791 3.83078C21.8681 7.66186 21.6981 13.4397 18.0689 17.0689C16.3559 18.7819 14.1643 19.7242 11.9246 19.8959V21.4246H13.6746C14.0888 21.4246 14.4246 21.7604 14.4246 22.1746C14.4246 22.5888 14.0888 22.9246 13.6746 22.9246H8.67462C8.26041 22.9246 7.92462 22.5888 7.92462 22.1746C7.92462 21.7604 8.26041 21.4246 8.67462 21.4246H10.4246V19.8959C8.41836 19.742 6.45056 18.9697 4.83078 17.5791L4.28033 18.1296C3.98744 18.4225 3.51256 18.4225 3.21967 18.1296C2.92678 17.8367 2.92678 17.3618 3.21967 17.0689L3.92678 16.3618C4.42221 15.8664 5.19208 15.8917 5.6744 16.3239C7.23636 17.7237 9.20384 18.424 11.1716 18.4246H11.1746H11.1779C13.2881 18.4237 15.3982 17.6183 17.0083 16.0083C20.1212 12.8953 20.2264 7.91315 17.3239 4.67439C16.8917 4.19208 16.8664 3.42221 17.3618 2.92678L18.0689 2.21967C18.3618 1.92678 18.8367 1.92678 19.1296 2.21967Z" fill="#121211"/>
<path fill-rule="evenodd" clip-rule="evenodd" d="M4.42456 10.1746C4.42456 6.4467 7.44664 3.42462 11.1745 3.42462C14.9024 3.42462 17.9245 6.4467 17.9245 10.1746C17.9245 13.9025 14.9024 16.9246 11.1745 16.9246C7.44664 16.9246 4.42456 13.9025 4.42456 10.1746ZM11.1745 4.92462C8.27507 4.92462 5.92456 7.27513 5.92456 10.1746C5.92456 10.5095 5.95591 10.837 6.01582 11.1544C6.42714 10.7058 7.01801 10.4246 7.67456 10.4246C8.9172 10.4246 9.92456 11.432 9.92456 12.6746C9.92456 13.597 9.36957 14.3897 8.57532 14.7371C9.34168 15.1746 10.2289 15.4246 11.1745 15.4246C13.7179 15.4246 15.8388 13.6161 16.3215 11.2148C15.6529 12.244 14.4932 12.9246 13.1745 12.9246C11.1035 12.9246 9.42456 11.2457 9.42456 9.17462C9.42456 7.10355 11.1035 5.42462 13.1745 5.42462C13.261 5.42462 13.3468 5.42755 13.4318 5.43331C12.748 5.10718 11.9826 4.92462 11.1745 4.92462ZM10.9245 9.17462C10.9245 7.93198 11.9319 6.92462 13.1745 6.92462C14.4172 6.92462 15.4245 7.93198 15.4245 9.17462C15.4245 10.4173 14.4172 11.4246 13.1745 11.4246C11.9319 11.4246 10.9245 10.4173 10.9245 9.17462ZM7.67456 11.9246C7.26035 11.9246 6.92456 12.2604 6.92456 12.6746C6.92456 13.0888 7.26035 13.4246 7.67456 13.4246C8.08878 13.4246 8.42456 13.0888 8.42456 12.6746C8.42456 12.2604 8.08878 11.9246 7.67456 11.9246Z" fill="#121211"/>
</svg>
