<svg width="17" height="16" viewBox="0 0 17 16" fill="none" xmlns="http://www.w3.org/2000/svg">
<path fill-rule="evenodd" clip-rule="evenodd" d="M12.7781 4.08965L8.83317 4L4.88823 4.08965C4.15722 4.10626 3.53827 4.63624 3.4061 5.35874C3.08664 7.10493 3.08664 8.89507 3.4061 10.6413C3.53827 11.3637 4.15722 11.8937 4.88823 11.9103L8.83317 12L12.7781 11.9103C13.5091 11.8937 14.1281 11.3637 14.2602 10.6413C14.5797 8.89507 14.5797 7.10493 14.2602 5.35874C14.1281 4.63624 13.5091 4.10626 12.7781 4.08965ZM4.90685 4.917L8.83317 4.82777L12.7595 4.917C13.1001 4.92474 13.3885 5.17169 13.4501 5.50833C13.5342 5.96845 13.5949 6.4318 13.6321 6.8966H4.03427C4.07141 6.4318 4.13208 5.96845 4.21625 5.50833C4.27784 5.17169 4.56624 4.92474 4.90685 4.917ZM3.99023 8C3.99023 8.834 4.06557 9.668 4.21625 10.4917C4.27784 10.8283 4.56624 11.0753 4.90685 11.083L8.83317 11.1722L12.7595 11.083C13.1001 11.0753 13.3885 10.8283 13.4501 10.4917C13.6008 9.668 13.6761 8.834 13.6761 8H3.99023Z" fill="#121211"/>
</svg>
