<svg width="17" height="16" viewBox="0 0 17 16" fill="none" xmlns="http://www.w3.org/2000/svg">
<path fill-rule="evenodd" clip-rule="evenodd" d="M7.75327 2.58113C8.20287 1.80629 9.3218 1.80629 9.7714 2.58113L11.1483 4.95404C11.2753 5.17276 11.4946 5.32203 11.7447 5.35979L14.0311 5.70513C15.0277 5.85566 15.3773 7.11407 14.6011 7.75713L12.9352 9.13733C12.7014 9.33107 12.5915 9.6366 12.6483 9.93493L13.1149 12.3855C13.2977 13.3455 12.2899 14.0914 11.4253 13.6361L9.1506 12.4384C8.9076 12.3104 8.61713 12.3104 8.37407 12.4384L6.0994 13.6361C5.23472 14.0914 4.22697 13.3455 4.40977 12.3855L4.87643 9.93493C4.93323 9.6366 4.82328 9.33107 4.58945 9.13733L2.92351 7.75713C2.14733 7.11407 2.49693 5.85566 3.49359 5.70513L5.78002 5.35979C6.03007 5.32203 6.24943 5.17276 6.37635 4.95404L7.75327 2.58113ZM8.90647 3.08302C8.84227 2.97233 8.6824 2.97233 8.6182 3.08302L7.24127 5.45593C6.96207 5.93711 6.47946 6.26549 5.92937 6.34857L3.64293 6.69393C3.50055 6.7154 3.45061 6.8952 3.56149 6.98707L5.22743 8.36727C5.74185 8.79347 5.98373 9.46573 5.85877 10.122L5.39212 12.5726C5.36601 12.7097 5.50997 12.8163 5.63349 12.7513L7.9082 11.5535C8.4428 11.272 9.08187 11.272 9.61647 11.5535L11.8912 12.7513C12.0147 12.8163 12.1587 12.7097 12.1325 12.5726L11.6659 10.122C11.5409 9.46573 11.7828 8.79347 12.2973 8.36727L13.9632 6.98707C14.0741 6.8952 14.0241 6.7154 13.8817 6.69393L11.5953 6.34857C11.0452 6.26549 10.5626 5.93711 10.2834 5.45593L8.90647 3.08302Z" fill="#121211"/>
</svg>
