<svg width="16" height="18" viewBox="0 0 16 18" fill="none" xmlns="http://www.w3.org/2000/svg">
<path fill-rule="evenodd" clip-rule="evenodd" d="M8.3948 2.17915C7.9981 1.94028 7.5019 1.94028 7.1052 2.17915L6.5889 2.49004C5.20765 3.32175 3.65703 3.83212 2.05183 3.98335L1.72655 4.01399C1.59813 4.02609 1.5 4.13391 1.5 4.26289V5.90678C1.5 8.4143 2.51803 10.8144 4.32088 12.5573L7.5762 15.7043C7.6731 15.7979 7.8269 15.7979 7.9238 15.7043L11.1791 12.5573C12.982 10.8144 14 8.4143 14 5.90678V4.26289C14 4.1339 13.9019 4.02609 13.7735 4.01399L13.4482 3.98335C11.843 3.83212 10.2923 3.32175 8.9111 2.49004L8.3948 2.17915ZM6.3314 0.894132C7.2041 0.368622 8.2959 0.368622 9.1686 0.894132L9.6849 1.20502C10.8734 1.92068 12.2076 2.35983 13.5889 2.48996L13.9141 2.52061C14.8131 2.6053 15.5 3.35999 15.5 4.26289V5.90678C15.5 8.8209 14.3169 11.6103 12.2217 13.6357L8.9663 16.7827C8.288 17.4385 7.212 17.4385 6.5337 16.7827L3.27832 13.6357C1.18311 11.6102 0 8.8209 0 5.90678V4.26289C0 3.35998 0.68693 2.6053 1.58585 2.52061L1.91113 2.48996C3.29235 2.35983 4.62661 1.92068 5.81511 1.20502L6.3314 0.894132Z" fill="#121211"/>
</svg>
